<mxfile host="app.diagrams.net" agent="Mozilla/5.0 (Windows NT 10.0; Win64; x64) AppleWebKit/537.36 (KHTML, like Gecko) Chrome/129.0.0.0 Safari/537.36" version="24.7.16">
  <diagram name="Página-1" id="1upfq-E3TZnH4Ai5wknj">
    <mxGraphModel dx="880" dy="444" grid="1" gridSize="10" guides="1" tooltips="1" connect="1" arrows="1" fold="1" page="1" pageScale="1" pageWidth="827" pageHeight="1169" math="0" shadow="0">
      <root>
        <mxCell id="0" />
        <mxCell id="1" parent="0" />
        <mxCell id="b5OuM27qtwzma6k_WAEG-50" style="edgeStyle=orthogonalEdgeStyle;rounded=0;orthogonalLoop=1;jettySize=auto;html=1;entryX=0;entryY=0.5;entryDx=0;entryDy=0;" parent="1" source="b5OuM27qtwzma6k_WAEG-1" edge="1">
          <mxGeometry relative="1" as="geometry">
            <mxPoint x="160" y="190" as="targetPoint" />
          </mxGeometry>
        </mxCell>
        <mxCell id="b5OuM27qtwzma6k_WAEG-1" value="" style="ellipse;whiteSpace=wrap;html=1;" parent="1" vertex="1">
          <mxGeometry x="40" y="170" width="40" height="40" as="geometry" />
        </mxCell>
        <mxCell id="b5OuM27qtwzma6k_WAEG-2" value="Inicio Cadastro" style="text;html=1;align=center;verticalAlign=middle;resizable=0;points=[];autosize=1;strokeColor=none;fillColor=none;" parent="1" vertex="1">
          <mxGeometry x="10" y="130" width="100" height="30" as="geometry" />
        </mxCell>
        <mxCell id="b5OuM27qtwzma6k_WAEG-3" value="SITE DE DOAÇÃO DE ALIMENTOS" style="swimlane;horizontal=0;whiteSpace=wrap;html=1;" parent="1" vertex="1">
          <mxGeometry x="110" y="30" width="660" height="845" as="geometry" />
        </mxCell>
        <mxCell id="b5OuM27qtwzma6k_WAEG-9" value="F" style="swimlane;whiteSpace=wrap;html=1;startSize=23;" parent="b5OuM27qtwzma6k_WAEG-3" vertex="1">
          <mxGeometry x="20" width="640" height="280" as="geometry" />
        </mxCell>
        <mxCell id="b5OuM27qtwzma6k_WAEG-14" value="Enviar Formulário" style="rounded=1;whiteSpace=wrap;html=1;" parent="b5OuM27qtwzma6k_WAEG-9" vertex="1">
          <mxGeometry x="200" y="130" width="120" height="60" as="geometry" />
        </mxCell>
        <mxCell id="l4xKDWHQXIPOhB7_o9nN-3" value="" style="points=[[0.145,0.145,0],[0.5,0,0],[0.855,0.145,0],[1,0.5,0],[0.855,0.855,0],[0.5,1,0],[0.145,0.855,0],[0,0.5,0]];shape=mxgraph.bpmn.event;html=1;verticalLabelPosition=bottom;labelBackgroundColor=#ffffff;verticalAlign=top;align=center;perimeter=ellipsePerimeter;outlineConnect=0;aspect=fixed;outline=throwing;symbol=general;" vertex="1" parent="b5OuM27qtwzma6k_WAEG-9">
          <mxGeometry x="520" y="180" width="40" height="40" as="geometry" />
        </mxCell>
        <mxCell id="l4xKDWHQXIPOhB7_o9nN-9" style="edgeStyle=orthogonalEdgeStyle;rounded=0;orthogonalLoop=1;jettySize=auto;html=1;entryX=0;entryY=0.5;entryDx=0;entryDy=0;" edge="1" parent="b5OuM27qtwzma6k_WAEG-9" source="l4xKDWHQXIPOhB7_o9nN-7" target="b5OuM27qtwzma6k_WAEG-14">
          <mxGeometry relative="1" as="geometry" />
        </mxCell>
        <mxCell id="l4xKDWHQXIPOhB7_o9nN-7" value="&#xa;&lt;span style=&quot;color: rgb(0, 0, 0); font-family: Helvetica; font-size: 12px; font-style: normal; font-variant-ligatures: normal; font-variant-caps: normal; font-weight: 400; letter-spacing: normal; orphans: 2; text-align: center; text-indent: 0px; text-transform: none; widows: 2; word-spacing: 0px; -webkit-text-stroke-width: 0px; white-space: normal; background-color: rgb(251, 251, 251); text-decoration-thickness: initial; text-decoration-style: initial; text-decoration-color: initial; display: inline !important; float: none;&quot;&gt;Preencher Formulário de Cadastro&lt;/span&gt;&#xa;&#xa;" style="points=[[0.25,0,0],[0.5,0,0],[0.75,0,0],[1,0.25,0],[1,0.5,0],[1,0.75,0],[0.75,1,0],[0.5,1,0],[0.25,1,0],[0,0.75,0],[0,0.5,0],[0,0.25,0]];shape=mxgraph.bpmn.task;whiteSpace=wrap;rectStyle=rounded;size=10;html=1;container=1;expand=0;collapsible=0;taskMarker=user;" vertex="1" parent="b5OuM27qtwzma6k_WAEG-9">
          <mxGeometry x="30" y="130" width="110" height="60" as="geometry" />
        </mxCell>
        <mxCell id="b5OuM27qtwzma6k_WAEG-10" value="SISTEMA" style="swimlane;whiteSpace=wrap;html=1;" parent="b5OuM27qtwzma6k_WAEG-3" vertex="1">
          <mxGeometry x="20" y="280" width="640" height="280" as="geometry" />
        </mxCell>
        <mxCell id="b5OuM27qtwzma6k_WAEG-15" value="Validar Informações" style="rounded=1;whiteSpace=wrap;html=1;" parent="b5OuM27qtwzma6k_WAEG-10" vertex="1">
          <mxGeometry x="20" y="110" width="120" height="60" as="geometry" />
        </mxCell>
        <mxCell id="b5OuM27qtwzma6k_WAEG-22" style="edgeStyle=orthogonalEdgeStyle;rounded=0;orthogonalLoop=1;jettySize=auto;html=1;entryX=0;entryY=0.5;entryDx=0;entryDy=0;" parent="b5OuM27qtwzma6k_WAEG-10" source="b5OuM27qtwzma6k_WAEG-17" target="b5OuM27qtwzma6k_WAEG-21" edge="1">
          <mxGeometry relative="1" as="geometry" />
        </mxCell>
        <mxCell id="b5OuM27qtwzma6k_WAEG-26" style="edgeStyle=orthogonalEdgeStyle;rounded=0;orthogonalLoop=1;jettySize=auto;html=1;entryX=0;entryY=0.5;entryDx=0;entryDy=0;" parent="b5OuM27qtwzma6k_WAEG-10" source="b5OuM27qtwzma6k_WAEG-17" target="b5OuM27qtwzma6k_WAEG-25" edge="1">
          <mxGeometry relative="1" as="geometry" />
        </mxCell>
        <mxCell id="b5OuM27qtwzma6k_WAEG-17" value="" style="points=[[0.25,0.25,0],[0.5,0,0],[0.75,0.25,0],[1,0.5,0],[0.75,0.75,0],[0.5,1,0],[0.25,0.75,0],[0,0.5,0]];shape=mxgraph.bpmn.gateway2;html=1;verticalLabelPosition=bottom;labelBackgroundColor=#ffffff;verticalAlign=top;align=center;perimeter=rhombusPerimeter;outlineConnect=0;outline=none;symbol=none;gwType=exclusive;" parent="b5OuM27qtwzma6k_WAEG-10" vertex="1">
          <mxGeometry x="170" y="115" width="50" height="50" as="geometry" />
        </mxCell>
        <mxCell id="b5OuM27qtwzma6k_WAEG-18" value="Informações Válidas?" style="text;html=1;align=center;verticalAlign=middle;resizable=0;points=[];autosize=1;strokeColor=none;fillColor=none;" parent="b5OuM27qtwzma6k_WAEG-10" vertex="1">
          <mxGeometry x="125" y="170" width="140" height="30" as="geometry" />
        </mxCell>
        <mxCell id="b5OuM27qtwzma6k_WAEG-19" style="edgeStyle=orthogonalEdgeStyle;rounded=0;orthogonalLoop=1;jettySize=auto;html=1;entryX=0;entryY=0.5;entryDx=0;entryDy=0;entryPerimeter=0;" parent="b5OuM27qtwzma6k_WAEG-10" source="b5OuM27qtwzma6k_WAEG-15" target="b5OuM27qtwzma6k_WAEG-17" edge="1">
          <mxGeometry relative="1" as="geometry" />
        </mxCell>
        <mxCell id="b5OuM27qtwzma6k_WAEG-21" value="Retornar ao Usuário com erro" style="rounded=1;whiteSpace=wrap;html=1;" parent="b5OuM27qtwzma6k_WAEG-10" vertex="1">
          <mxGeometry x="310" y="50" width="120" height="60" as="geometry" />
        </mxCell>
        <mxCell id="b5OuM27qtwzma6k_WAEG-24" value="Não" style="text;html=1;align=center;verticalAlign=middle;resizable=0;points=[];autosize=1;strokeColor=none;fillColor=none;" parent="b5OuM27qtwzma6k_WAEG-10" vertex="1">
          <mxGeometry x="265" y="90" width="50" height="30" as="geometry" />
        </mxCell>
        <mxCell id="b5OuM27qtwzma6k_WAEG-29" style="edgeStyle=orthogonalEdgeStyle;rounded=0;orthogonalLoop=1;jettySize=auto;html=1;entryX=0;entryY=0.5;entryDx=0;entryDy=0;" parent="b5OuM27qtwzma6k_WAEG-10" source="b5OuM27qtwzma6k_WAEG-25" target="b5OuM27qtwzma6k_WAEG-28" edge="1">
          <mxGeometry relative="1" as="geometry" />
        </mxCell>
        <mxCell id="b5OuM27qtwzma6k_WAEG-25" value="Criar Registro no Banco de Dados" style="rounded=1;whiteSpace=wrap;html=1;" parent="b5OuM27qtwzma6k_WAEG-10" vertex="1">
          <mxGeometry x="310" y="180" width="120" height="60" as="geometry" />
        </mxCell>
        <mxCell id="b5OuM27qtwzma6k_WAEG-27" value="Sim" style="text;html=1;align=center;verticalAlign=middle;resizable=0;points=[];autosize=1;strokeColor=none;fillColor=none;" parent="b5OuM27qtwzma6k_WAEG-10" vertex="1">
          <mxGeometry x="265" y="170" width="40" height="30" as="geometry" />
        </mxCell>
        <mxCell id="b5OuM27qtwzma6k_WAEG-28" value="Notificar Administração" style="rounded=1;whiteSpace=wrap;html=1;" parent="b5OuM27qtwzma6k_WAEG-10" vertex="1">
          <mxGeometry x="480" y="180" width="120" height="60" as="geometry" />
        </mxCell>
        <mxCell id="b5OuM27qtwzma6k_WAEG-11" value="ADMINISTRAÇÃO" style="swimlane;whiteSpace=wrap;html=1;" parent="b5OuM27qtwzma6k_WAEG-3" vertex="1">
          <mxGeometry x="20" y="560" width="640" height="285" as="geometry" />
        </mxCell>
        <mxCell id="b5OuM27qtwzma6k_WAEG-30" value="Revisar Cadastro" style="rounded=1;whiteSpace=wrap;html=1;" parent="b5OuM27qtwzma6k_WAEG-11" vertex="1">
          <mxGeometry x="20" y="120" width="120" height="60" as="geometry" />
        </mxCell>
        <mxCell id="b5OuM27qtwzma6k_WAEG-37" style="edgeStyle=orthogonalEdgeStyle;rounded=0;orthogonalLoop=1;jettySize=auto;html=1;entryX=0;entryY=0.5;entryDx=0;entryDy=0;" parent="b5OuM27qtwzma6k_WAEG-11" source="b5OuM27qtwzma6k_WAEG-32" target="b5OuM27qtwzma6k_WAEG-36" edge="1">
          <mxGeometry relative="1" as="geometry" />
        </mxCell>
        <mxCell id="b5OuM27qtwzma6k_WAEG-40" style="edgeStyle=orthogonalEdgeStyle;rounded=0;orthogonalLoop=1;jettySize=auto;html=1;entryX=0;entryY=0.5;entryDx=0;entryDy=0;" parent="b5OuM27qtwzma6k_WAEG-11" source="b5OuM27qtwzma6k_WAEG-32" target="b5OuM27qtwzma6k_WAEG-39" edge="1">
          <mxGeometry relative="1" as="geometry" />
        </mxCell>
        <mxCell id="b5OuM27qtwzma6k_WAEG-32" value="" style="points=[[0.25,0.25,0],[0.5,0,0],[0.75,0.25,0],[1,0.5,0],[0.75,0.75,0],[0.5,1,0],[0.25,0.75,0],[0,0.5,0]];shape=mxgraph.bpmn.gateway2;html=1;verticalLabelPosition=bottom;labelBackgroundColor=#ffffff;verticalAlign=top;align=center;perimeter=rhombusPerimeter;outlineConnect=0;outline=none;symbol=none;gwType=exclusive;" parent="b5OuM27qtwzma6k_WAEG-11" vertex="1">
          <mxGeometry x="170" y="125" width="50" height="50" as="geometry" />
        </mxCell>
        <mxCell id="b5OuM27qtwzma6k_WAEG-33" value="Cadastro aprovado?" style="text;html=1;align=center;verticalAlign=middle;resizable=0;points=[];autosize=1;strokeColor=none;fillColor=none;" parent="b5OuM27qtwzma6k_WAEG-11" vertex="1">
          <mxGeometry x="130" y="190" width="130" height="30" as="geometry" />
        </mxCell>
        <mxCell id="b5OuM27qtwzma6k_WAEG-35" style="edgeStyle=orthogonalEdgeStyle;rounded=0;orthogonalLoop=1;jettySize=auto;html=1;entryX=0;entryY=0.5;entryDx=0;entryDy=0;entryPerimeter=0;" parent="b5OuM27qtwzma6k_WAEG-11" source="b5OuM27qtwzma6k_WAEG-30" target="b5OuM27qtwzma6k_WAEG-32" edge="1">
          <mxGeometry relative="1" as="geometry" />
        </mxCell>
        <mxCell id="b5OuM27qtwzma6k_WAEG-55" style="edgeStyle=orthogonalEdgeStyle;rounded=0;orthogonalLoop=1;jettySize=auto;html=1;entryX=0;entryY=0.5;entryDx=0;entryDy=0;" parent="b5OuM27qtwzma6k_WAEG-11" source="b5OuM27qtwzma6k_WAEG-36" target="b5OuM27qtwzma6k_WAEG-52" edge="1">
          <mxGeometry relative="1" as="geometry" />
        </mxCell>
        <mxCell id="b5OuM27qtwzma6k_WAEG-36" value="Atualizar Status para &quot;Aprovado&quot;" style="rounded=1;whiteSpace=wrap;html=1;" parent="b5OuM27qtwzma6k_WAEG-11" vertex="1">
          <mxGeometry x="300" y="190" width="120" height="60" as="geometry" />
        </mxCell>
        <mxCell id="b5OuM27qtwzma6k_WAEG-54" style="edgeStyle=orthogonalEdgeStyle;rounded=0;orthogonalLoop=1;jettySize=auto;html=1;entryX=0;entryY=0.5;entryDx=0;entryDy=0;" parent="b5OuM27qtwzma6k_WAEG-11" source="b5OuM27qtwzma6k_WAEG-39" target="b5OuM27qtwzma6k_WAEG-51" edge="1">
          <mxGeometry relative="1" as="geometry" />
        </mxCell>
        <mxCell id="b5OuM27qtwzma6k_WAEG-39" value="Atualizar Status para &quot;Reprovado&quot;" style="rounded=1;whiteSpace=wrap;html=1;" parent="b5OuM27qtwzma6k_WAEG-11" vertex="1">
          <mxGeometry x="300" y="60" width="120" height="60" as="geometry" />
        </mxCell>
        <mxCell id="b5OuM27qtwzma6k_WAEG-41" value="Não" style="text;html=1;align=center;verticalAlign=middle;resizable=0;points=[];autosize=1;strokeColor=none;fillColor=none;" parent="b5OuM27qtwzma6k_WAEG-11" vertex="1">
          <mxGeometry x="259" y="60" width="50" height="30" as="geometry" />
        </mxCell>
        <mxCell id="b5OuM27qtwzma6k_WAEG-51" value="&lt;span style=&quot;text-wrap: nowrap;&quot;&gt;Enviar e-mail de&amp;nbsp;&lt;/span&gt;&lt;div style=&quot;text-wrap: nowrap;&quot;&gt;justificativa&lt;/div&gt;" style="rounded=1;whiteSpace=wrap;html=1;" parent="b5OuM27qtwzma6k_WAEG-11" vertex="1">
          <mxGeometry x="490" y="60" width="120" height="60" as="geometry" />
        </mxCell>
        <mxCell id="b5OuM27qtwzma6k_WAEG-52" value="&lt;span style=&quot;text-wrap: nowrap;&quot;&gt;Enviar e-mail de&amp;nbsp;&lt;/span&gt;&lt;div style=&quot;text-wrap: nowrap;&quot;&gt;confirmação&lt;/div&gt;" style="rounded=1;whiteSpace=wrap;html=1;" parent="b5OuM27qtwzma6k_WAEG-11" vertex="1">
          <mxGeometry x="480" y="190" width="120" height="60" as="geometry" />
        </mxCell>
        <mxCell id="b5OuM27qtwzma6k_WAEG-16" style="edgeStyle=orthogonalEdgeStyle;rounded=0;orthogonalLoop=1;jettySize=auto;html=1;entryX=0.5;entryY=0;entryDx=0;entryDy=0;" parent="b5OuM27qtwzma6k_WAEG-3" source="b5OuM27qtwzma6k_WAEG-14" target="b5OuM27qtwzma6k_WAEG-15" edge="1">
          <mxGeometry relative="1" as="geometry">
            <Array as="points">
              <mxPoint x="280" y="240" />
              <mxPoint x="100" y="240" />
            </Array>
          </mxGeometry>
        </mxCell>
        <mxCell id="b5OuM27qtwzma6k_WAEG-34" style="edgeStyle=orthogonalEdgeStyle;rounded=0;orthogonalLoop=1;jettySize=auto;html=1;entryX=0.5;entryY=0;entryDx=0;entryDy=0;" parent="b5OuM27qtwzma6k_WAEG-3" source="b5OuM27qtwzma6k_WAEG-28" target="b5OuM27qtwzma6k_WAEG-30" edge="1">
          <mxGeometry relative="1" as="geometry">
            <Array as="points">
              <mxPoint x="560" y="600" />
              <mxPoint x="100" y="600" />
            </Array>
          </mxGeometry>
        </mxCell>
        <mxCell id="b5OuM27qtwzma6k_WAEG-59" style="edgeStyle=orthogonalEdgeStyle;rounded=0;orthogonalLoop=1;jettySize=auto;html=1;exitX=1;exitY=0.5;exitDx=0;exitDy=0;" parent="b5OuM27qtwzma6k_WAEG-3" source="b5OuM27qtwzma6k_WAEG-51" edge="1">
          <mxGeometry relative="1" as="geometry">
            <Array as="points">
              <mxPoint x="630" y="70" />
              <mxPoint x="90" y="70" />
            </Array>
            <mxPoint x="90" y="130" as="targetPoint" />
          </mxGeometry>
        </mxCell>
        <mxCell id="l4xKDWHQXIPOhB7_o9nN-4" style="edgeStyle=orthogonalEdgeStyle;rounded=0;orthogonalLoop=1;jettySize=auto;html=1;entryX=0.5;entryY=1;entryDx=0;entryDy=0;entryPerimeter=0;" edge="1" parent="b5OuM27qtwzma6k_WAEG-3" source="b5OuM27qtwzma6k_WAEG-21" target="l4xKDWHQXIPOhB7_o9nN-3">
          <mxGeometry relative="1" as="geometry" />
        </mxCell>
        <mxCell id="b5OuM27qtwzma6k_WAEG-38" value="Sim" style="text;html=1;align=center;verticalAlign=middle;resizable=0;points=[];autosize=1;strokeColor=none;fillColor=none;" parent="1" vertex="1">
          <mxGeometry x="390" y="808" width="40" height="30" as="geometry" />
        </mxCell>
        <mxCell id="b5OuM27qtwzma6k_WAEG-56" value="" style="points=[[0.145,0.145,0],[0.5,0,0],[0.855,0.145,0],[1,0.5,0],[0.855,0.855,0],[0.5,1,0],[0.145,0.855,0],[0,0.5,0]];shape=mxgraph.bpmn.event;html=1;verticalLabelPosition=bottom;labelBackgroundColor=#ffffff;verticalAlign=top;align=center;perimeter=ellipsePerimeter;outlineConnect=0;aspect=fixed;outline=throwing;symbol=general;" parent="1" vertex="1">
          <mxGeometry x="740" y="900" width="50" height="50" as="geometry" />
        </mxCell>
        <mxCell id="b5OuM27qtwzma6k_WAEG-57" style="edgeStyle=orthogonalEdgeStyle;rounded=0;orthogonalLoop=1;jettySize=auto;html=1;entryX=0.5;entryY=0;entryDx=0;entryDy=0;entryPerimeter=0;" parent="1" source="b5OuM27qtwzma6k_WAEG-52" target="b5OuM27qtwzma6k_WAEG-56" edge="1">
          <mxGeometry relative="1" as="geometry" />
        </mxCell>
        <mxCell id="b5OuM27qtwzma6k_WAEG-58" value="Fim do Processo" style="text;html=1;align=center;verticalAlign=middle;resizable=0;points=[];autosize=1;strokeColor=none;fillColor=none;" parent="1" vertex="1">
          <mxGeometry x="710" y="950" width="110" height="30" as="geometry" />
        </mxCell>
        <mxCell id="l4xKDWHQXIPOhB7_o9nN-5" value="Fim do Processo" style="text;html=1;align=center;verticalAlign=middle;resizable=0;points=[];autosize=1;strokeColor=none;fillColor=none;" vertex="1" parent="1">
          <mxGeometry x="615" y="178" width="110" height="30" as="geometry" />
        </mxCell>
      </root>
    </mxGraphModel>
  </diagram>
</mxfile>
